<mxfile host="app.diagrams.net" agent="Mozilla/5.0 (Windows NT 10.0; Win64; x64) AppleWebKit/537.36 (KHTML, like Gecko) Chrome/130.0.0.0 Safari/537.36" version="24.8.4">
  <diagram name="第 1 页" id="2AeVbu4eEIHLUvCp7j2h">
    <mxGraphModel dx="1050" dy="530" grid="1" gridSize="10" guides="1" tooltips="1" connect="1" arrows="1" fold="1" page="1" pageScale="1" pageWidth="827" pageHeight="1169" math="0" shadow="0">
      <root>
        <mxCell id="0" />
        <mxCell id="1" parent="0" />
        <mxCell id="gsn1r09oL6u_TpLSt7wg-1" value="mongoDB" style="rounded=0;whiteSpace=wrap;html=1;" parent="1" vertex="1">
          <mxGeometry x="320" y="410" width="120" height="60" as="geometry" />
        </mxCell>
        <mxCell id="gsn1r09oL6u_TpLSt7wg-2" value="react.js" style="rounded=0;whiteSpace=wrap;html=1;" parent="1" vertex="1">
          <mxGeometry x="320" y="80" width="120" height="60" as="geometry" />
        </mxCell>
        <mxCell id="gsn1r09oL6u_TpLSt7wg-3" value="node.js" style="rounded=0;whiteSpace=wrap;html=1;verticalAlign=bottom;" parent="1" vertex="1">
          <mxGeometry x="320" y="220" width="220" height="100" as="geometry" />
        </mxCell>
        <mxCell id="gsn1r09oL6u_TpLSt7wg-4" value="" style="endArrow=classic;startArrow=classic;html=1;rounded=0;exitX=0.5;exitY=0;exitDx=0;exitDy=0;entryX=0.25;entryY=1;entryDx=0;entryDy=0;" parent="1" source="gsn1r09oL6u_TpLSt7wg-1" target="gsn1r09oL6u_TpLSt7wg-3" edge="1">
          <mxGeometry width="50" height="50" relative="1" as="geometry">
            <mxPoint x="390" y="300" as="sourcePoint" />
            <mxPoint x="440" y="250" as="targetPoint" />
          </mxGeometry>
        </mxCell>
        <mxCell id="gsn1r09oL6u_TpLSt7wg-5" value="mongoose" style="edgeLabel;html=1;align=center;verticalAlign=middle;resizable=0;points=[];" parent="gsn1r09oL6u_TpLSt7wg-4" vertex="1" connectable="0">
          <mxGeometry x="-0.0415" y="-1" relative="1" as="geometry">
            <mxPoint as="offset" />
          </mxGeometry>
        </mxCell>
        <mxCell id="gsn1r09oL6u_TpLSt7wg-6" value="express.js" style="rounded=0;whiteSpace=wrap;html=1;" parent="1" vertex="1">
          <mxGeometry x="354" y="230" width="120" height="60" as="geometry" />
        </mxCell>
        <mxCell id="gsn1r09oL6u_TpLSt7wg-7" value="web" style="text;html=1;align=center;verticalAlign=middle;whiteSpace=wrap;rounded=0;rotation=-90;" parent="1" vertex="1">
          <mxGeometry x="240" y="95" width="60" height="30" as="geometry" />
        </mxCell>
        <mxCell id="gsn1r09oL6u_TpLSt7wg-8" value="serveer" style="text;html=1;align=center;verticalAlign=middle;whiteSpace=wrap;rounded=0;rotation=-90;" parent="1" vertex="1">
          <mxGeometry x="240" y="230" width="60" height="30" as="geometry" />
        </mxCell>
        <mxCell id="gsn1r09oL6u_TpLSt7wg-9" value="data base" style="text;html=1;align=center;verticalAlign=middle;whiteSpace=wrap;rounded=0;rotation=-90;" parent="1" vertex="1">
          <mxGeometry x="240" y="410" width="60" height="30" as="geometry" />
        </mxCell>
        <mxCell id="lAs7NrEQWZCzC-CIa_ZA-1" value="JWT" style="swimlane;whiteSpace=wrap;html=1;swimlaneFillColor=default;verticalAlign=top;" vertex="1" parent="1">
          <mxGeometry x="610" y="210" width="200" height="200" as="geometry" />
        </mxCell>
        <mxCell id="lAs7NrEQWZCzC-CIa_ZA-4" value="&lt;div&gt;npm install:&lt;/div&gt;jsonwebtoken&amp;nbsp;&lt;div style=&quot;font-size: 16px;&quot;&gt;passport&lt;/div&gt;&lt;div style=&quot;font-size: 16px;&quot;&gt;passport-jwt&lt;/div&gt;&lt;div style=&quot;font-size: 16px;&quot;&gt;passport-local&lt;/div&gt;" style="text;html=1;align=left;verticalAlign=top;whiteSpace=wrap;rounded=0;fontSize=16;" vertex="1" parent="lAs7NrEQWZCzC-CIa_ZA-1">
          <mxGeometry x="10" y="35" width="180" height="155" as="geometry" />
        </mxCell>
        <mxCell id="lAs7NrEQWZCzC-CIa_ZA-2" style="edgeStyle=orthogonalEdgeStyle;rounded=0;orthogonalLoop=1;jettySize=auto;html=1;entryX=-0.004;entryY=0.092;entryDx=0;entryDy=0;entryPerimeter=0;" edge="1" parent="1" source="gsn1r09oL6u_TpLSt7wg-3" target="lAs7NrEQWZCzC-CIa_ZA-1">
          <mxGeometry relative="1" as="geometry" />
        </mxCell>
      </root>
    </mxGraphModel>
  </diagram>
</mxfile>
